<?xml version="1.0" encoding="UTF-8"?>
<svg xmlns="http://www.w3.org/2000/svg" xmlns:xlink="http://www.w3.org/1999/xlink" viewBox="0 0 40 40" version="1.1" width="480px" height="480px">
<g id="surface1">
<path style=" fill:#DFF0FE;" d="M 20 37.5 C 10.351563 37.5 2.5 29.648438 2.5 20 C 2.5 10.351563 10.351563 2.5 20 2.5 C 29.648438 2.5 37.5 10.351563 37.5 20 C 37.5 29.648438 29.648438 37.5 20 37.5 Z "/>
<path style=" fill:#4788C7;" d="M 20 3 C 29.375 3 37 10.625 37 20 C 37 29.375 29.375 37 20 37 C 10.625 37 3 29.375 3 20 C 3 10.625 10.625 3 20 3 M 20 2 C 10.054688 2 2 10.054688 2 20 C 2 29.945313 10.054688 38 20 38 C 29.945313 38 38 29.945313 38 20 C 38 10.054688 29.945313 2 20 2 Z "/>
<path style=" fill:#4788C7;" d="M 28.144531 3.960938 L 21.332031 14.667969 L 28 13.332031 L 20 22.664063 L 26.667969 21.332031 L 12.652344 36.425781 C 12.980469 36.570313 13.3125 36.699219 13.644531 36.824219 L 27.398438 22.015625 L 29.507813 19.746094 L 26.472656 20.351563 L 22.644531 21.117188 L 28.761719 13.984375 L 30.644531 11.785156 L 27.804688 12.351563 L 23.433594 13.226563 L 29.027344 4.441406 C 28.738281 4.273438 28.445313 4.113281 28.144531 3.960938 Z "/>
<path style=" fill:#4788C7;" d="M 11.855469 36.039063 L 18.667969 25.332031 L 12 26.667969 L 20 17.335938 L 13.332031 18.667969 L 27.347656 3.574219 C 27.019531 3.429688 26.6875 3.300781 26.355469 3.175781 L 12.601563 17.984375 L 10.496094 20.253906 L 13.53125 19.648438 L 17.355469 18.882813 L 11.242188 26.015625 L 9.355469 28.214844 L 12.195313 27.648438 L 16.566406 26.773438 L 10.976563 35.558594 C 11.261719 35.726563 11.554688 35.886719 11.855469 36.039063 Z "/>
<path style=" fill:#FFFFFF;" d="M 20 34.5 C 12.003906 34.5 5.5 27.996094 5.5 20 C 5.5 12.003906 12.003906 5.5 20 5.5 C 27.996094 5.5 34.5 12.003906 34.5 20 C 34.5 27.996094 27.996094 34.5 20 34.5 Z "/>
<path style=" fill:#4788C7;" d="M 20 6 C 27.71875 6 34 12.28125 34 20 C 34 27.71875 27.71875 34 20 34 C 12.28125 34 6 27.71875 6 20 C 6 12.28125 12.28125 6 20 6 M 20 5 C 11.714844 5 5 11.714844 5 20 C 5 28.285156 11.714844 35 20 35 C 28.285156 35 35 28.285156 35 20 C 35 11.714844 28.285156 5 20 5 Z "/>
<path style=" fill:#98CCFD;" d="M 31 0 L 13 19 L 20 18 L 12 27 L 18 26 L 9 40 L 27 21 L 20 23 L 28 13 L 22 14 Z "/>
</g>
</svg>
